<svg xmlns="http://www.w3.org/2000/svg" xmlns:xlink="http://www.w3.org/1999/xlink" width="512" height="512" viewBox="0 0 180 180">
  <defs>
    <clipPath id="clip-SPRK_default_preset_name_custom_2">
      <rect width="180" height="180"/>
    </clipPath>
  </defs>
  <g id="SPRK_default_preset_name_custom_2" data-name="SPRK_default_preset_name_custom – 2" clip-path="url(#clip-SPRK_default_preset_name_custom_2)">
    <rect width="180" height="180" fill="#222"/>
    <g id="组件_2_3" data-name="组件 2 – 3" transform="translate(54.75 41.217)">
      <g id="组_4" data-name="组 4" transform="translate(-72.25 -43.217)">
        <g id="组_1" data-name="组 1" transform="translate(20.75 30.217)">
          <g id="路径_2" data-name="路径 2" transform="translate(51.5 13)" fill="none">
            <path d="M35.25,0A35.25,35.25,0,0,1,70.5,35.25c0,8.682-7.042,22.617-13.722,33.613-2.185,3.6-3.246,7.656-5.539,10.071H19.262c-2.4-2.449-3.332-6-5.791-10.071C7.1,58.3,0,43.959,0,35.25A35.25,35.25,0,0,1,35.25,0Z" stroke="none"/>
            <path d="M 35.25 2.999992370605469 C 30.89495086669922 2.999992370605469 26.67177581787109 3.852272033691406 22.69776153564453 5.533134460449219 C 18.85781097412109 7.157295227050781 15.40856170654297 9.483047485351563 12.4458122253418 12.44580841064453 C 9.483051300048828 15.4085578918457 7.157299041748047 18.85780715942383 5.533134460449219 22.69775772094727 C 3.852272033691406 26.67176818847656 3 30.89494323730469 3 35.24999618530273 C 3 38.759521484375 4.4183349609375 43.92155838012695 7.101673126220703 50.17805480957031 C 9.949260711669922 56.81749725341797 13.53366088867188 63.16107177734375 16.03924942016602 67.31362915039063 C 17.0687255859375 69.01998138427734 17.84306335449219 70.62693023681641 18.52626419067383 72.04472351074219 C 19.27313995361328 73.59467315673828 19.90068817138672 74.89694213867188 20.651611328125 75.93480682373047 L 35.25 75.93480682373047 L 49.79703521728516 75.93480682373047 C 50.50765228271484 74.87566375732422 51.14313125610352 73.48849487304688 51.80617523193359 72.04112243652344 C 52.51314926147461 70.49787139892578 53.24418640136719 68.90206909179688 54.21367645263672 67.30585479736328 C 57.97952270507813 61.10650634765625 61.15425109863281 55.1180419921875 63.39461135864258 49.98786926269531 C 66.08037567138672 43.8377685546875 67.5 38.74149322509766 67.5 35.24999618530273 C 67.5 30.89494323730469 66.64772796630859 26.67176818847656 64.96686553955078 22.69775772094727 C 63.34270095825195 18.85780715942383 61.01694869995117 15.4085578918457 58.0541877746582 12.44580841064453 C 55.09143829345703 9.483047485351563 51.64218902587891 7.157295227050781 47.80223846435547 5.533134460449219 C 43.82822418212891 3.852272033691406 39.60504913330078 2.999992370605469 35.25 2.999992370605469 M 35.25 -7.62939453125e-06 C 54.71803665161133 -7.62939453125e-06 70.5 15.78195571899414 70.5 35.24999618530273 C 70.5 43.93162155151367 63.45780181884766 57.86656951904297 56.77767562866211 68.86338043212891 C 54.59249877929688 72.46116638183594 53.53168487548828 76.51960754394531 51.23838806152344 78.93480682373047 L 35.25 78.93480682373047 L 19.26160049438477 78.93480682373047 C 16.86132431030273 76.48555755615234 15.92935180664063 72.93885803222656 13.47053909301758 68.86338043212891 C 7.095314025878906 58.29755783081055 0 43.95945739746094 0 35.24999618530273 C 0 15.78195571899414 15.78196334838867 -7.62939453125e-06 35.25 -7.62939453125e-06 Z" stroke="none" fill="#ececec"/>
          </g>
          <g id="联合_1" data-name="联合 1" transform="translate(71 94.567)" fill="none">
            <path d="M6.621,10.074H1.872L0,0H31L29.713,10.074H24.964C24.1,13.455,20.32,16,15.792,16S7.488,13.455,6.621,10.074Z" stroke="none"/>
            <path d="M 15.79241943359375 13 C 17.38723945617676 13 18.91996955871582 12.57188034057617 20.10827827453613 11.79450035095215 C 21.1288890838623 11.1268196105957 21.82123947143555 10.25115966796875 22.05778884887695 9.328829765319824 L 22.63606834411621 7.074130058288574 L 24.9637393951416 7.074130058288574 L 27.07181739807129 7.074130058288574 L 27.59233283996582 3 L 3.608795642852783 3 L 4.365832328796387 7.074130058288574 L 6.62109899520874 7.074130058288574 L 8.948768615722656 7.074130058288574 L 9.52704906463623 9.328829765319824 C 9.763599395751953 10.25115966796875 10.45594882965088 11.1268196105957 11.47655868530273 11.79450035095215 C 12.66486930847168 12.57188034057617 14.19759941101074 13 15.79241943359375 13 M 15.79241943359375 16 C 11.26507949829102 16 7.488288879394531 13.45530986785889 6.62109899520874 10.07413005828857 L 1.871929049491882 10.07413005828857 L -9.5367431640625e-07 0 L 31 0 L 29.71291923522949 10.07413005828857 L 24.9637393951416 10.07413005828857 C 24.09654998779297 13.45530986785889 20.31975936889648 16 15.79241943359375 16 Z" stroke="none" fill="#ececec"/>
          </g>
        </g>
      </g>
      <path id="路径_4" data-name="路径 4" d="M86.8,82.6s1.2-8.5,6.4-12.8,14.4-4.4,14.4-4.4" transform="translate(-72.25 -51.217)" fill="none" stroke="#fff" stroke-width="3"/>
    </g>
  </g>
</svg>
